<?xml version="1.0" encoding="UTF-8" standalone="no"?>
<!DOCTYPE svg PUBLIC "-//W3C//DTD SVG 1.1//EN" "http://www.w3.org/Graphics/SVG/1.1/DTD/svg11.dtd">
<svg width="100%" height="100%" viewBox="0 0 410 88" version="1.1" xmlns="http://www.w3.org/2000/svg" xmlns:xlink="http://www.w3.org/1999/xlink" xml:space="preserve" xmlns:serif="http://www.serif.com/" style="fill-rule:evenodd;clip-rule:evenodd;stroke-linejoin:round;stroke-miterlimit:2;">
    <g transform="matrix(1,0,0,1,-2600.87,-2493.47)">
        <g>
            <g transform="matrix(2.4591,0,0,2.4591,-2616.02,-666.718)">
                <path d="M2121.46,1320L2121.46,1285.1L2126.72,1285.1L2126.72,1315.3L2141.67,1315.3L2141.67,1320L2121.46,1320Z" style="fill-rule:nonzero;"/>
            </g>
            <g transform="matrix(-2.4591,-3.01153e-16,3.01153e-16,-2.4591,8215.6,5739.48)">
                <path d="M2121.46,1320L2121.46,1285.1L2126.72,1285.1L2126.72,1315.3L2141.67,1315.3L2141.67,1320L2121.46,1320Z" style="fill-rule:nonzero;"/>
            </g>
            <g transform="matrix(2.4591,0,0,2.4591,-2620.02,-666.718)">
                <path d="M2152.34,1285.1L2152.34,1306.55C2152.34,1307.98 2152.38,1309.28 2152.46,1310.45C2152.53,1311.62 2152.76,1312.61 2153.14,1313.42C2153.51,1314.24 2154.08,1314.87 2154.83,1315.3C2155.58,1315.73 2156.62,1315.95 2157.93,1315.95C2159.25,1315.95 2160.28,1315.73 2161.03,1315.3C2161.79,1314.87 2162.35,1314.24 2162.73,1313.42C2163.1,1312.61 2163.33,1311.62 2163.41,1310.45C2163.49,1309.28 2163.53,1307.98 2163.53,1306.55L2163.53,1285.1L2168.79,1285.1L2168.79,1305.55C2168.79,1308.05 2168.66,1310.24 2168.39,1312.12C2168.12,1314.01 2167.6,1315.58 2166.82,1316.83C2166.03,1318.08 2164.93,1319.02 2163.5,1319.65C2162.08,1320.28 2160.22,1320.6 2157.93,1320.6C2155.64,1320.6 2153.79,1320.28 2152.36,1319.65C2150.94,1319.02 2149.83,1318.08 2149.05,1316.83C2148.26,1315.58 2147.74,1314.01 2147.47,1312.12C2147.21,1310.24 2147.07,1308.05 2147.07,1305.55L2147.07,1285.1L2152.34,1285.1Z" style="fill-rule:nonzero;"/>
            </g>
            <g transform="matrix(2.4591,0,0,2.4591,-2620.02,-666.718)">
                <path d="M2192.2,1303.3L2192.34,1292.8L2191.96,1292.8L2185.38,1310.75L2178.8,1292.8L2178.42,1292.8L2178.57,1303.3L2178.57,1320L2173.91,1320L2173.91,1285.1L2180.35,1285.1L2185.38,1298.95L2185.71,1298.95L2190.78,1285.1L2196.85,1285.1L2196.85,1320L2192.2,1320L2192.2,1303.3Z" style="fill-rule:nonzero;"/>
            </g>
            <g transform="matrix(2.4591,0,0,2.4591,-2638.02,-666.718)">
                <rect x="2210.21" y="1285.1" width="5.227" height="34.9" style="fill-rule:nonzero;"/>
            </g>
            <g transform="matrix(2.4591,0,0,2.4591,-2656.02,-666.718)">
                <path d="M2234.59,1293.15L2234.17,1293.15L2234.17,1320L2229.56,1320L2229.56,1285.1L2236.33,1285.1L2245.96,1311.95L2246.39,1311.95L2246.39,1285.1L2250.99,1285.1L2250.99,1320L2244.22,1320L2234.59,1293.15Z" style="fill-rule:nonzero;"/>
            </g>
            <g transform="matrix(2.4591,0,0,2.4591,-2656.02,-666.718)">
                <path d="M2275.34,1320L2272.85,1310.7L2262.41,1310.7L2259.92,1320L2254.56,1320L2264.15,1285.1L2271.34,1285.1L2280.93,1320L2275.34,1320ZM2267.82,1290.75L2267.44,1290.75L2263.4,1306.05L2271.86,1306.05L2267.82,1290.75Z" style="fill-rule:nonzero;"/>
            </g>
            <g transform="matrix(1.66667,0,0,1,-1965,37)">
                <rect x="2964" y="2494" width="21" height="11"/>
            </g>
        </g>
    </g>
</svg>
